<?xml version="1.0" encoding="UTF-8" standalone="no"?>
<!-- Created with Inkscape (http://www.inkscape.org/) -->

<svg
   version="1.1"
   id="svg911"
   width="389.33334"
   height="218.66667"
   viewBox="0 0 389.33334 218.66667"
   sodipodi:docname="rest-api.svg"
   inkscape:version="1.1 (c68e22c387, 2021-05-23)"
   xmlns:inkscape="http://www.inkscape.org/namespaces/inkscape"
   xmlns:sodipodi="http://sodipodi.sourceforge.net/DTD/sodipodi-0.dtd"
   xmlns="http://www.w3.org/2000/svg"
   xmlns:svg="http://www.w3.org/2000/svg">
  <defs
     id="defs915">
    <rect
       x="79.622158"
       y="113.42939"
       width="252.09687"
       height="70.163112"
       id="rect11310" />
  </defs>
  <sodipodi:namedview
     id="namedview913"
     pagecolor="#ffffff"
     bordercolor="#666666"
     borderopacity="1.0"
     inkscape:pageshadow="2"
     inkscape:pageopacity="0.0"
     inkscape:pagecheckerboard="0"
     showgrid="false"
     inkscape:zoom="1.6682363"
     inkscape:cx="80.624072"
     inkscape:cy="123.18399"
     inkscape:window-width="1920"
     inkscape:window-height="1001"
     inkscape:window-x="-9"
     inkscape:window-y="-9"
     inkscape:window-maximized="1"
     inkscape:current-layer="layer1" />
  <g
     inkscape:groupmode="layer"
     id="layer1"
     inkscape:label="rest-api"
     style="display:inline">
    <path
       id="path7639"
       style="fill:#27aede;fill-opacity:1;stroke:#27aede;stroke-width:2;stroke-linecap:square;stroke-opacity:1;paint-order:fill markers stroke"
       d="m 143.14258,3.4609375 a 76.826218,59.807056 0 0 0 -76.566408,59.9414065 76.826218,59.807056 0 0 0 0.533203,6.11914 H 66.71875 c -0.008,0 -0.01367,0.0076 -0.01367,0.01563 V 94.644531 A 54.315277,58.70253 0 0 0 56.558594,93.517578 54.315277,58.70253 0 0 0 2.4277344,152.35156 54.315277,58.70253 0 0 0 55.722656,210.83984 v 0.49219 c 0,0.008 0.0057,0.0137 0.01367,0.0137 H 341.28711 a 38.92049,46.027416 0 0 0 5.07617,0.42774 38.92049,46.027416 0 0 0 38.91016,-46.02735 v -0.0449 a 38.92049,46.027416 0 0 0 -38.94727,-45.98242 38.92049,46.027416 0 0 0 -6.61133,1.00586 18.368416,39.548767 0 0 0 0.0703,-2.35352 v -0.0371 a 18.368416,39.548767 0 0 0 -8.87891,-33.773433 70.679863,57.980801 0 0 0 -64.51758,-34.974609 70.679863,57.980801 0 0 0 -46.19922,14.142578 76.826218,59.807056 0 0 0 0.0391,-0.460938 l -0.002,-0.271484 A 76.826218,59.807056 0 0 0 143.14258,3.4609375 Z" />
    <text
       xml:space="preserve"
       id="text11308"
       style="font-style:normal;font-weight:normal;font-size:48px;line-height:1.25;font-family:sans-serif;white-space:pre;shape-inside:url(#rect11310);fill:#000000;fill-opacity:1;stroke:none"
       transform="translate(-1.4386451,1.3778915)"><tspan
         x="79.623047"
         y="157.22154"
         id="tspan53186"><tspan
           style="fill:#ffffff"
           id="tspan53184">REST API</tspan></tspan></text>
  </g>
</svg>
